<svg width="16" height="6" viewBox="0 0 16 6" fill="none" xmlns="http://www.w3.org/2000/svg">
<path d="M11.1474 3.84257C12.2015 4.80644 13.5067 6 16 6L15.9722 3.65217C14.5 3.65217 13.8056 3.02609 12.8611 2.16522L12.8526 2.15743C11.7985 1.19356 10.4933 0 8 0C5.47894 0 4.17361 1.19363 3.11953 2.15752L3.11111 2.16522C2.16667 3.02609 1.5 3.65217 0 3.65217V6C2.5 6 3.80556 4.8 4.88889 3.83478C5.83333 2.97391 6.5 2.34783 8 2.34783C9.45978 2.34783 10.1549 2.96338 11.1143 3.81301L11.1389 3.83478L11.1474 3.84257Z" fill="#F1F1F1"/>
</svg>
